# xmcd CD database file
#
# Track frame offsets:
#	150
#	4450
#	19543
#	37803
#	55236
#	66119
#	75109
#	94335
#	126858
#	148333
#	160197
#	172609
#	186395
#	200247
#	210582
#	227817
#
# Disc length: 3434 seconds
#
# Revision: 1
# Processed by: cddbd v1.5.2PL0 Copyright (c) Steve Scherf et al.
# Submitted via: CDex 1.70beta2
#
DISCID=d50d6810
DTITLE=Vaccaphobic Cowboys - Welcome to the Club
DYEAR=2002
DGENRE=Country
TTITLE0=Welcome to the Club
TTITLE1=Fishing in the Dark
TTITLE2=Mercury Blues
TTITLE3=God blessed Texas
TTITLE4=Calling Baton Rouge
TTITLE5=Hello Trouble
TTITLE6=Gone Country
TTITLE7=The Dance
TTITLE8=Copperhead Road
TTITLE9=Song of the South
TTITLE10=Honky Tonk Blues
TTITLE11=The Race is on
TTITLE12=Country Roads
TTITLE13=Sold
TTITLE14=There's a Fire
TTITLE15=Stand a little Rain
EXTD=YEAR: 2002
EXTT0=
EXTT1=
EXTT2=
EXTT3=
EXTT4=
EXTT5=
EXTT6=
EXTT7=
EXTT8=
EXTT9=
EXTT10=
EXTT11=
EXTT12=
EXTT13=
EXTT14=
EXTT15=
PLAYORDER=
